<svg xmlns="http://www.w3.org/2000/svg" xmlns:xlink="http://www.w3.org/1999/xlink" width="70" height="70" viewBox="0 0 70 70" fill="none"><g opacity="1"  transform="translate(0 0)"><path id="矩形 6" fill-rule="evenodd" style="fill:#087BFF" opacity="1" d="M23 70L47 70C59.7 70 70 59.7 70 47L70 23C70 10.3 59.7 0 47 0L23 0C10.3 0 0 10.3 0 23L0 47C0 59.7 10.3 70 23 70Z"></path><path id="文本 1" fill-rule="evenodd" style="fill:#FFFFFF" opacity="1" d="M40.44 12C48.36 12.06 52.08 15.45 52.08 15.45C55.8 18.84 55.8 26.1 55.8 26.1C55.8 27.96 55.5 30.66 55.5 30.66L54.6 38.88C53.28 48.66 48.6 53.07 48.6 53.07C43.92 57.48 34.8 57.54 34.8 57.54L30.36 57.54C22.44 57.48 18.72 54.12 18.72 54.12C15 50.76 15 43.56 15 43.56C15 41.7 15.3 38.88 15.3 38.88L16.2 30.66C17.46 20.88 22.17 16.47 22.17 16.47C26.88 12.06 36 12 36 12L40.44 12ZM22.32 39.24C22.08 41.64 22.08 42.6 22.08 42.6C22.08 46.98 24.15 48.93 24.15 48.93C26.22 50.88 30.96 50.94 30.96 50.94L35.76 50.94C41.22 50.88 43.89 48.15 43.89 48.15C46.56 45.42 47.4 39.24 47.4 39.24L48.48 30.3C48.72 27.9 48.72 26.94 48.72 26.94C48.72 22.56 46.65 20.61 46.65 20.61C44.58 18.66 39.84 18.6 39.84 18.6L35.04 18.6C29.58 18.66 26.91 21.39 26.91 21.39C24.24 24.12 23.4 30.3 23.4 30.3L22.32 39.24Z"></path></g></svg>