<svg xmlns="http://www.w3.org/2000/svg" xmlns:xlink="http://www.w3.org/1999/xlink" width="111" height="19" viewBox="0 0 111 19" fill="none"><g opacity="1"  transform="translate(0 0)"><path id="矩形 4" fill-rule="evenodd" style="fill:#000000" opacity="0" d="M0 0L111 0L111 19L0 19L0 0Z"></path><path id="矩形 4" fill-rule="evenodd" style="fill:#087BFF" opacity="1" d="M61 16L104.594 16L106 3L62.4062 3L61 16Z"></path><path id="文本 1" fill-rule="evenodd" style="fill:#087BFF" opacity="1" d="M10.7364 4.81999C12.3204 4.83199 13.0644 5.50999 13.0644 5.50999C13.8084 6.18799 13.8084 7.63999 13.8084 7.63999C13.8084 8.01199 13.7484 8.55199 13.7484 8.55199L13.5684 10.196C13.3044 12.152 12.3684 13.034 12.3684 13.034C11.4324 13.916 9.60844 13.928 9.60844 13.928L8.72044 13.928C7.13644 13.916 6.39244 13.244 6.39244 13.244C5.64844 12.572 5.64844 11.132 5.64844 11.132C5.64844 10.76 5.70844 10.196 5.70844 10.196L5.88844 8.55199C6.14044 6.59599 7.08244 5.71399 7.08244 5.71399C8.02444 4.83199 9.84844 4.81999 9.84844 4.81999L10.7364 4.81999ZM7.11244 10.268C7.06444 10.748 7.06444 10.94 7.06444 10.94C7.06444 11.816 7.47844 12.206 7.47844 12.206C7.89244 12.596 8.84044 12.608 8.84044 12.608L9.80044 12.608C10.8924 12.596 11.4264 12.05 11.4264 12.05C11.9604 11.504 12.1284 10.268 12.1284 10.268L12.3444 8.47999C12.3924 7.99999 12.3924 7.80799 12.3924 7.80799C12.3924 6.93199 11.9784 6.54199 11.9784 6.54199C11.5644 6.15199 10.6164 6.13999 10.6164 6.13999L9.65644 6.13999C8.56444 6.15199 8.03044 6.69799 8.03044 6.69799C7.49644 7.24399 7.32844 8.47999 7.32844 8.47999L7.11244 10.268ZM19.1004 12.56L19.7484 7.19599L21.1284 7.19599L20.3124 13.88L17.3004 13.88C14.8164 13.88 14.8164 11.6 14.8164 11.6C14.8164 11.324 14.8524 11 14.8524 11L15.3204 7.19599L16.7004 7.19599L16.2324 11.036C16.2084 11.192 16.2084 11.468 16.2084 11.468C16.2084 12.092 16.5024 12.332 16.5024 12.332C16.7964 12.572 17.4564 12.572 17.4564 12.572L19.1004 12.56ZM26.1444 8.50399C25.4004 8.47999 25.1844 8.47999 25.1844 8.47999C24.4164 8.47999 24.0324 8.84599 24.0324 8.84599C23.6484 9.21199 23.5524 10.052 23.5524 10.052L23.0724 13.88L21.6924 13.88L22.1604 10.088C22.3404 8.56399 23.0784 7.87999 23.0784 7.87999C23.8164 7.19599 25.3404 7.19599 25.3404 7.19599C25.9404 7.19599 26.3604 7.23199 26.3604 7.23199L26.1444 8.50399ZM28.6404 13.88C28.3404 13.88 28.1424 13.694 28.1424 13.694C27.9444 13.508 27.8964 13.112 27.8964 13.112L27.0204 4.86799L28.5204 4.86799L29.2764 12.56L29.6004 12.56L32.1684 5.59999L34.0644 5.59999L34.9164 12.572L35.2404 12.572L37.8924 4.87999L39.4404 4.87999L36.5124 13.232C36.2844 13.868 35.7084 13.892 35.7084 13.892L34.2924 13.892C33.9924 13.892 33.7944 13.706 33.7944 13.706C33.5964 13.52 33.5484 13.124 33.5484 13.124L32.9244 7.43599L30.8604 13.22C30.6204 13.88 30.0204 13.88 30.0204 13.88L28.6404 13.88ZM39.5364 10.04C39.8844 7.14799 42.7164 7.14799 42.7164 7.14799L43.2924 7.14799C45.7764 7.14799 45.7764 9.42799 45.7764 9.42799C45.7764 9.70399 45.7404 10.028 45.7404 10.028L45.6204 11.036C45.2724 13.928 42.4404 13.928 42.4404 13.928L41.8644 13.928C39.3804 13.928 39.3804 11.648 39.3804 11.648C39.3804 11.372 39.4164 11.048 39.4164 11.048L39.5364 10.04ZM42.5964 12.644C44.0364 12.644 44.2284 11.072 44.2284 11.072L44.3604 9.99199C44.3844 9.75199 44.3844 9.65599 44.3844 9.65599C44.3844 8.43199 43.1364 8.43199 43.1364 8.43199L42.5604 8.43199C41.1204 8.43199 40.9284 10.004 40.9284 10.004L40.7964 11.084C40.7724 11.324 40.7724 11.42 40.7724 11.42C40.7724 12.644 42.0204 12.644 42.0204 12.644L42.5964 12.644ZM50.8644 8.50399C50.1204 8.47999 49.9044 8.47999 49.9044 8.47999C49.1364 8.47999 48.7524 8.84599 48.7524 8.84599C48.3684 9.21199 48.2724 10.052 48.2724 10.052L47.7924 13.88L46.4124 13.88L46.8804 10.088C47.0604 8.56399 47.7984 7.87999 47.7984 7.87999C48.5364 7.19599 50.0604 7.19599 50.0604 7.19599C50.6604 7.19599 51.0804 7.23199 51.0804 7.23199L50.8644 8.50399ZM51.2244 13.88L52.3524 4.62799L53.7324 4.62799L52.6044 13.88L51.2244 13.88ZM54.3804 10.088C54.7284 7.19599 57.4764 7.19599 57.4764 7.19599L59.0484 7.19599L59.3604 4.62799L60.7404 4.62799L59.6124 13.88L56.7204 13.88C54.2364 13.88 54.2364 11.6 54.2364 11.6C54.2364 11.324 54.2724 11 54.2724 11L54.3804 10.088ZM58.3884 12.596L58.8924 8.45599L57.3204 8.45599C55.9644 8.45599 55.7724 10.052 55.7724 10.052L55.6524 11.036C55.6284 11.276 55.6284 11.384 55.6284 11.384C55.6284 12.596 56.8764 12.596 56.8764 12.596L58.3884 12.596Z"></path><path id="文本 1" fill-rule="evenodd" style="fill:#FFFFFF" opacity="1" d="M67.84 5.62901C69.292 5.64001 69.974 6.26151 69.974 6.26151C70.656 6.88301 70.656 8.21401 70.656 8.21401C70.656 8.55501 70.601 9.05001 70.601 9.05001L70.436 10.469C70.194 12.262 69.336 13.0705 69.336 13.0705C68.478 13.879 66.817 13.89 66.817 13.89L63.418 13.89L64.43 5.62901L67.84 5.62901ZM66.982 12.68C67.983 12.68 68.478 12.174 68.478 12.174C68.973 11.668 69.116 10.535 69.116 10.535L69.314 8.98401C69.358 8.54401 69.358 8.36801 69.358 8.36801C69.358 7.56501 68.9785 7.20201 68.9785 7.20201C68.599 6.83901 67.73 6.83901 67.73 6.83901L65.585 6.83901L64.859 12.68L66.982 12.68ZM71.558 10.37C71.877 7.71901 74.473 7.71901 74.473 7.71901L75.001 7.71901C77.278 7.71901 77.278 9.80901 77.278 9.80901C77.278 10.062 77.245 10.359 77.245 10.359L77.135 11.283C76.816 13.934 74.22 13.934 74.22 13.934L73.692 13.934C71.415 13.934 71.415 11.844 71.415 11.844C71.415 11.591 71.448 11.294 71.448 11.294L71.558 10.37ZM74.363 12.757C75.683 12.757 75.859 11.316 75.859 11.316L75.98 10.326C76.002 10.106 76.002 10.018 76.002 10.018C76.002 8.89601 74.858 8.89601 74.858 8.89601L74.33 8.89601C73.01 8.89601 72.834 10.337 72.834 10.337L72.713 11.327C72.691 11.547 72.691 11.635 72.691 11.635C72.691 12.757 73.835 12.757 73.835 12.757L74.363 12.757ZM83.614 8.94001L83.02 13.89L81.755 13.89L82.36 8.94001L79.885 8.94001L79.291 13.89L78.026 13.89L78.774 7.76301L84.934 7.76301C87.211 7.76301 87.211 9.85301 87.211 9.85301C87.211 10.106 87.178 10.403 87.178 10.403L86.749 13.89L85.484 13.89L85.913 10.37C85.935 10.15 85.935 10.062 85.935 10.062C85.935 8.94001 84.791 8.94001 84.791 8.94001L83.614 8.94001ZM89.829 13.89C89.004 13.89 88.509 13.4225 88.509 13.4225C88.014 12.955 88.014 12.207 88.014 12.207C88.014 12.042 88.025 11.954 88.025 11.954C88.124 11.272 88.377 10.8705 88.377 10.8705C88.63 10.469 89.1085 10.2875 89.1085 10.2875C89.587 10.106 90.368 10.106 90.368 10.106L92.216 10.106L92.227 10.018C92.238 9.96301 92.238 9.86401 92.238 9.86401C92.238 9.43501 91.952 9.17101 91.952 9.17101C91.666 8.90701 91.061 8.90701 91.061 8.90701L90.775 8.90701C89.796 8.90701 89.015 8.96201 89.015 8.96201L89.18 7.84001L89.499 7.81801C89.675 7.80701 90.1205 7.78501 90.1205 7.78501C90.566 7.76301 90.896 7.76301 90.896 7.76301L91.193 7.76301C92.326 7.76301 92.909 8.30201 92.909 8.30201C93.492 8.84101 93.492 9.74301 93.492 9.74301C93.492 9.84201 93.47 10.084 93.47 10.084L93.019 13.89L89.829 13.89ZM89.279 12.086C89.279 12.405 89.4605 12.5755 89.4605 12.5755C89.642 12.746 89.983 12.746 89.983 12.746L91.897 12.746L92.084 11.206L90.258 11.195C89.84 11.184 89.5925 11.3545 89.5925 11.3545C89.345 11.525 89.29 11.954 89.29 11.954L89.279 12.086ZM95.175 6.93801L95.34 5.61801L96.781 5.61801L96.616 6.93801L95.175 6.93801ZM95.681 13.89L94.416 13.89L95.175 7.76301L96.44 7.76301L95.681 13.89ZM99.003 8.94001L98.409 13.89L97.144 13.89L97.892 7.76301L100.653 7.76301C102.93 7.76301 102.93 9.85301 102.93 9.85301C102.93 10.106 102.897 10.403 102.897 10.403L102.468 13.89L101.203 13.89L101.632 10.37C101.654 10.15 101.654 10.062 101.654 10.062C101.654 8.94001 100.51 8.94001 100.51 8.94001L99.003 8.94001Z"></path></g></svg>