
<svg xmlns="http://www.w3.org/2000/svg" xmlns:xlink="http://www.w3.org/1999/xlink" width="55.091796875" height="9.300003051757812" viewBox="0 0 55.091796875 9.300003051757812" fill="none"><path id="文本 1" fill-rule="evenodd" style="fill:#087BFF" opacity="1" d="M5.088 0.192C6.672 0.204 7.416 0.882 7.416 0.882C8.16 1.56 8.16 3.012 8.16 3.012C8.16 3.384 8.1 3.924 8.1 3.924L7.92 5.568C7.656 7.524 6.72 8.406 6.72 8.406C5.784 9.288 3.96 9.3 3.96 9.3L3.072 9.3C1.488 9.288 0.744 8.616 0.744 8.616C0 7.944 0 6.504 0 6.504C0 6.132 0.06 5.568 0.06 5.568L0.24 3.924C0.492 1.968 1.434 1.086 1.434 1.086C2.376 0.204 4.2 0.192 4.2 0.192L5.088 0.192ZM1.464 5.64C1.416 6.12 1.416 6.312 1.416 6.312C1.416 7.188 1.83 7.578 1.83 7.578C2.244 7.968 3.192 7.98 3.192 7.98L4.152 7.98C5.244 7.968 5.778 7.422 5.778 7.422C6.312 6.876 6.48 5.64 6.48 5.64L6.696 3.852C6.744 3.372 6.744 3.18 6.744 3.18C6.744 2.304 6.33 1.914 6.33 1.914C5.916 1.524 4.968 1.512 4.968 1.512L4.008 1.512C2.916 1.524 2.382 2.07 2.382 2.07C1.848 2.616 1.68 3.852 1.68 3.852L1.464 5.64ZM13.452 7.932L14.1 2.568L15.48 2.568L14.664 9.252L11.652 9.252C9.168 9.252 9.168 6.972 9.168 6.972C9.168 6.696 9.204 6.372 9.204 6.372L9.672 2.568L11.052 2.568L10.584 6.408C10.56 6.564 10.56 6.84 10.56 6.84C10.56 7.464 10.854 7.704 10.854 7.704C11.148 7.944 11.808 7.944 11.808 7.944L13.452 7.932ZM20.496 3.876C19.752 3.852 19.536 3.852 19.536 3.852C18.768 3.852 18.384 4.218 18.384 4.218C18 4.584 17.904 5.424 17.904 5.424L17.424 9.252L16.044 9.252L16.512 5.46C16.692 3.936 17.43 3.252 17.43 3.252C18.168 2.568 19.692 2.568 19.692 2.568C20.292 2.568 20.712 2.604 20.712 2.604L20.496 3.876ZM22.992 9.252C22.692 9.252 22.494 9.066 22.494 9.066C22.296 8.88 22.248 8.484 22.248 8.484L21.372 0.24L22.872 0.24L23.628 7.932L23.952 7.932L26.52 0.972L28.416 0.972L29.268 7.944L29.592 7.944L32.244 0.252L33.792 0.252L30.864 8.604C30.636 9.24 30.06 9.264 30.06 9.264L28.644 9.264C28.344 9.264 28.146 9.078 28.146 9.078C27.948 8.892 27.9 8.496 27.9 8.496L27.276 2.808L25.212 8.592C24.972 9.252 24.372 9.252 24.372 9.252L22.992 9.252ZM33.888 5.412C34.236 2.52 37.068 2.52 37.068 2.52L37.644 2.52C40.128 2.52 40.128 4.8 40.128 4.8C40.128 5.076 40.092 5.4 40.092 5.4L39.972 6.408C39.624 9.3 36.792 9.3 36.792 9.3L36.216 9.3C33.732 9.3 33.732 7.02 33.732 7.02C33.732 6.744 33.768 6.42 33.768 6.42L33.888 5.412ZM36.948 8.016C38.388 8.016 38.58 6.444 38.58 6.444L38.712 5.364C38.736 5.124 38.736 5.028 38.736 5.028C38.736 3.804 37.488 3.804 37.488 3.804L36.912 3.804C35.472 3.804 35.28 5.376 35.28 5.376L35.148 6.456C35.124 6.696 35.124 6.792 35.124 6.792C35.124 8.016 36.372 8.016 36.372 8.016L36.948 8.016ZM45.216 3.876C44.472 3.852 44.256 3.852 44.256 3.852C43.488 3.852 43.104 4.218 43.104 4.218C42.72 4.584 42.624 5.424 42.624 5.424L42.144 9.252L40.764 9.252L41.232 5.46C41.412 3.936 42.15 3.252 42.15 3.252C42.888 2.568 44.412 2.568 44.412 2.568C45.012 2.568 45.432 2.604 45.432 2.604L45.216 3.876ZM45.576 9.252L46.704 0L48.084 0L46.956 9.252L45.576 9.252ZM48.732 5.46C49.08 2.568 51.828 2.568 51.828 2.568L53.4 2.568L53.712 0L55.092 0L53.964 9.252L51.072 9.252C48.588 9.252 48.588 6.972 48.588 6.972C48.588 6.696 48.624 6.372 48.624 6.372L48.732 5.46ZM52.74 7.968L53.244 3.828L51.672 3.828C50.316 3.828 50.124 5.424 50.124 5.424L50.004 6.408C49.98 6.648 49.98 6.756 49.98 6.756C49.98 7.968 51.228 7.968 51.228 7.968L52.74 7.968Z"></path></svg>